<svg width="512" height="512" viewBox="0 0 512 512" fill="none" xmlns="http://www.w3.org/2000/svg">
  <rect width="512" height="512" rx="128" fill="#7c3aed"/>
  <path fill-rule="evenodd" clip-rule="evenodd" d="M256 96C167.634 96 96 167.634 96 256C96 344.366 167.634 416 256 416C285.346 416 312.827 407.48 336.253 392.748L376.686 433.181L399.313 410.554L358.344 369.584C392.368 339.818 416 298.546 416 256C416 167.634 344.366 96 256 96ZM256 136C189.726 136 136 189.726 136 256C136 322.274 189.726 376 256 376C322.274 376 376 322.274 376 256C376 189.726 322.274 136 256 136Z" fill="white"/>
  <rect x="240" y="208" width="32" height="96" rx="16" fill="white"/>
  <rect x="176" y="232" width="32" height="48" rx="16" fill="white"/>
  <rect x="304" y="232" width="32" height="48" rx="16" fill="white"/>
</svg>